<?xml version="1.0" encoding="utf-8"?>
<!-- Generator: Adobe Illustrator 16.0.0, SVG Export Plug-In . SVG Version: 6.00 Build 0)  -->
<!DOCTYPE svg PUBLIC "-//W3C//DTD SVG 1.1//EN" "http://www.w3.org/Graphics/SVG/1.1/DTD/svg11.dtd">
<svg version="1.1" id="Layer_1" xmlns="http://www.w3.org/2000/svg" xmlns:xlink="http://www.w3.org/1999/xlink" x="0px" y="0px"
	 width="834.454px" height="184.874px" viewBox="0 0 834.454 184.874" enable-background="new 0 0 834.454 184.874"
	 xml:space="preserve">
<g>
	<g>
		<path fill="#608AD5" d="M198.973,142.583c-4.005,0-6.561-1.105-9.041-3.585l1.45-1.45c2.441,2.441,4.463,3.204,7.706,3.204
			c4.311,0,6.981-2.06,6.981-5.607c0-1.641-0.458-2.938-1.488-3.814c-1.03-0.801-1.678-1.145-3.929-1.449l-3.166-0.496
			c-2.06-0.306-3.662-0.954-4.845-1.984c-1.411-1.182-2.136-2.86-2.136-4.997c0-4.577,3.205-7.438,8.431-7.438
			c3.357,0,5.493,0.916,7.82,2.938l-1.335,1.335c-1.602-1.525-3.395-2.518-6.6-2.518c-3.967,0-6.294,2.136-6.294,5.607
			c0,1.564,0.458,2.747,1.411,3.548c0.954,0.801,2.518,1.411,4.044,1.679l2.937,0.458c2.556,0.343,3.739,0.839,4.845,1.792
			c1.488,1.221,2.365,3.091,2.365,5.265C208.128,139.685,204.657,142.583,198.973,142.583z"/>
		<path fill="#608AD5" d="M225.524,140.562c-1.335,1.335-3.014,2.021-5.112,2.021c-2.06,0-3.777-0.687-5.112-2.021
			c-1.945-1.945-2.289-4.769-2.289-7.4s0.343-5.455,2.289-7.4c1.335-1.335,3.052-2.022,5.112-2.022c2.098,0,3.776,0.688,5.112,2.022
			c1.945,1.945,2.289,4.769,2.289,7.4S227.47,138.616,225.524,140.562z M224.227,127.02c-1.03-1.03-2.327-1.564-3.814-1.564
			s-2.785,0.534-3.815,1.564c-1.526,1.525-1.64,4.005-1.64,6.142c0,2.136,0.114,4.616,1.64,6.142c1.03,1.03,2.327,1.564,3.815,1.564
			s2.785-0.534,3.814-1.564c1.526-1.525,1.641-4.006,1.641-6.142C225.868,131.024,225.753,128.545,224.227,127.02z"/>
		<path fill="#608AD5" d="M236.664,142.354h-1.945v-16.938h-2.518v-1.449h2.518V120c0-2.784,1.526-4.807,4.425-4.807h1.679v1.717
			h-1.335c-1.946,0-2.823,1.106-2.823,3.052v4.006h4.158v1.449h-4.158V142.354z"/>
		<path fill="#608AD5" d="M246.201,137.548v-12.131h-2.518v-1.449h2.518v-5.875h1.945v5.875h4.158v1.449h-4.158v12.169
			c0,1.945,0.877,3.052,2.823,3.052h1.335v1.717h-1.679C247.727,142.354,246.201,140.333,246.201,137.548z"/>
		<path fill="#608AD5" d="M273.21,142.354l-5.188-15.335l-5.188,15.335h-1.984l-5.875-18.387h2.136l4.692,16.098l5.264-16.098h1.908
			l5.264,16.098l4.692-16.098h2.136l-5.875,18.387H273.21z"/>
		<path fill="#608AD5" d="M296.1,140.523c-1.564,1.564-3.014,2.06-5.608,2.06c-2.747,0-4.234-0.457-5.417-1.678
			c-0.877-0.878-1.335-2.213-1.335-3.586c0-3.357,2.403-5.303,6.409-5.303h5.951v-2.06c0-2.938-1.412-4.502-5.188-4.502
			c-2.594,0-3.891,0.648-5.073,2.327l-1.412-1.221c1.564-2.174,3.472-2.823,6.485-2.823c4.883,0,7.134,2.175,7.134,6.027v12.589
			H296.1V140.523z M290.377,133.581c-3.128,0-4.692,1.221-4.692,3.7c0,2.441,1.45,3.586,4.807,3.586
			c1.679,0,3.243-0.153,4.578-1.412c0.687-0.648,1.03-1.831,1.03-3.51v-2.364H290.377z"/>
		<path fill="#608AD5" d="M312.16,125.455c-3.167,0-4.921,2.633-4.921,5.569v11.33h-1.946v-18.387h1.946v2.441
			c1.068-1.717,3.204-2.671,5.378-2.671c1.793,0,3.09,0.42,4.425,1.755l-1.412,1.412
			C314.525,125.799,313.686,125.455,312.16,125.455z"/>
		<path fill="#608AD5" d="M326.618,140.828c2.174,0,3.509-0.648,5.073-2.212l1.45,1.145c-1.869,1.869-3.586,2.822-6.638,2.822
			c-5.073,0-7.82-3.28-7.82-9.422c0-5.951,2.747-9.423,7.362-9.423s7.362,3.319,7.362,8.965v0.878h-12.779
			C320.629,138.272,322.689,140.828,326.618,140.828z M330.814,128.545c-0.801-1.945-2.632-3.09-4.768-3.09s-3.967,1.145-4.769,3.09
			c-0.419,1.183-0.534,1.679-0.648,3.472h10.834C331.348,130.262,331.31,129.651,330.814,128.545z"/>
		<path fill="#608AD5" d="M365.834,139.875c-1.64,1.641-3.929,2.479-6.79,2.479h-9.117v-27.161h9.117c2.861,0,5.15,0.84,6.79,2.48
			c2.747,2.746,2.632,7.057,2.632,10.719S368.581,137.128,365.834,139.875z M364.385,119.123c-1.564-1.641-3.662-2.098-5.836-2.098
			h-6.561v23.498h6.561c2.174,0,4.272-0.458,5.836-2.098c2.136-2.251,2.022-6.981,2.022-10.033S366.521,121.374,364.385,119.123z"/>
		<path fill="#608AD5" d="M382.163,140.828c2.174,0,3.509-0.648,5.073-2.212l1.45,1.145c-1.869,1.869-3.586,2.822-6.638,2.822
			c-5.073,0-7.82-3.28-7.82-9.422c0-5.951,2.747-9.423,7.362-9.423s7.362,3.319,7.362,8.965v0.878h-12.779
			C376.174,138.272,378.234,140.828,382.163,140.828z M386.359,128.545c-0.801-1.945-2.632-3.09-4.768-3.09s-3.967,1.145-4.769,3.09
			c-0.419,1.183-0.534,1.679-0.648,3.472h10.834C386.893,130.262,386.855,129.651,386.359,128.545z"/>
		<path fill="#608AD5" d="M398.453,142.354l-6.714-18.387h2.136l5.531,16.098l5.531-16.098h2.136l-6.714,18.387H398.453z"/>
		<path fill="#608AD5" d="M417.794,140.828c2.174,0,3.509-0.648,5.073-2.212l1.45,1.145c-1.869,1.869-3.586,2.822-6.638,2.822
			c-5.073,0-7.82-3.28-7.82-9.422c0-5.951,2.747-9.423,7.362-9.423s7.362,3.319,7.362,8.965v0.878h-12.779
			C411.805,138.272,413.865,140.828,417.794,140.828z M421.99,128.545c-0.801-1.945-2.632-3.09-4.768-3.09s-3.967,1.145-4.769,3.09
			c-0.419,1.183-0.534,1.679-0.648,3.472h10.834C422.524,130.262,422.486,129.651,421.99,128.545z"/>
		<path fill="#608AD5" d="M430.803,137.586v-22.393h1.945v22.354c0,2.099,0.648,3.09,2.823,3.09h1.335v1.717h-1.679
			C432.214,142.354,430.803,140.485,430.803,137.586z"/>
		<path fill="#608AD5" d="M452.547,140.562c-1.335,1.335-3.014,2.021-5.112,2.021c-2.06,0-3.776-0.687-5.111-2.021
			c-1.945-1.945-2.289-4.769-2.289-7.4s0.344-5.455,2.289-7.4c1.335-1.335,3.052-2.022,5.111-2.022c2.099,0,3.777,0.688,5.112,2.022
			c1.945,1.945,2.289,4.769,2.289,7.4S454.492,138.616,452.547,140.562z M451.25,127.02c-1.03-1.03-2.327-1.564-3.815-1.564
			c-1.487,0-2.784,0.534-3.814,1.564c-1.525,1.525-1.641,4.005-1.641,6.142c0,2.136,0.115,4.616,1.641,6.142
			c1.03,1.03,2.327,1.564,3.814,1.564c1.488,0,2.785-0.534,3.815-1.564c1.525-1.525,1.64-4.006,1.64-6.142
			C452.89,131.024,452.775,128.545,451.25,127.02z"/>
		<path fill="#608AD5" d="M473.071,140.981c-0.954,0.953-2.557,1.602-4.502,1.602c-2.098,0-3.814-0.457-5.455-2.594v11.139h-1.945
			v-27.16h1.945v2.365c1.641-2.137,3.357-2.595,5.455-2.595c1.945,0,3.548,0.649,4.502,1.603c1.869,1.869,2.364,4.921,2.364,7.82
			S474.94,139.112,473.071,140.981z M468.303,125.455c-4.502,0-5.188,3.892-5.188,7.706s0.687,7.706,5.188,7.706
			c4.501,0,5.188-3.892,5.188-7.706S472.804,125.455,468.303,125.455z"/>
		<path fill="#608AD5" d="M506.184,130.948c0-3.548-1.755-5.493-5.073-5.493c-3.205,0-5.188,1.984-5.188,5.15v11.749h-1.945v-11.406
			c0-3.548-1.755-5.493-5.073-5.493c-3.319,0-5.188,1.984-5.188,5.493v11.406h-1.945v-18.387h1.945v2.174
			c1.374-1.602,3.204-2.403,5.455-2.403c2.747,0,4.807,1.183,5.913,3.357c1.373-2.175,3.51-3.357,6.256-3.357
			c2.021,0,3.662,0.649,4.845,1.755c1.259,1.221,1.907,2.938,1.907,5.112v11.749h-1.907V130.948z"/>
		<path fill="#608AD5" d="M522.13,140.828c2.175,0,3.51-0.648,5.074-2.212l1.449,1.145c-1.869,1.869-3.586,2.822-6.638,2.822
			c-5.073,0-7.82-3.28-7.82-9.422c0-5.951,2.747-9.423,7.362-9.423c4.616,0,7.362,3.319,7.362,8.965v0.878h-12.778
			C516.142,138.272,518.201,140.828,522.13,140.828z M526.326,128.545c-0.801-1.945-2.632-3.09-4.769-3.09
			c-2.136,0-3.967,1.145-4.768,3.09c-0.42,1.183-0.534,1.679-0.648,3.472h10.833C526.86,130.262,526.822,129.651,526.326,128.545z"
			/>
		<path fill="#608AD5" d="M547.423,130.948c0-3.548-1.755-5.493-5.073-5.493c-3.319,0-5.188,1.984-5.188,5.493v11.406h-1.945
			v-18.387h1.945v2.174c1.373-1.602,3.166-2.403,5.417-2.403c2.021,0,3.662,0.572,4.883,1.755c1.259,1.221,1.907,2.938,1.907,5.112
			v11.749h-1.945V130.948z"/>
		<path fill="#608AD5" d="M556.999,137.548v-12.131h-2.518v-1.449h2.518v-5.875h1.945v5.875h4.158v1.449h-4.158v12.169
			c0,1.945,0.877,3.052,2.823,3.052h1.335v1.717h-1.679C558.524,142.354,556.999,140.333,556.999,137.548z"/>
		<path fill="#608AD5" d="M565.239,147.009h19.607v1.449h-19.607V147.009z"/>
	</g>
	<g>
		<path fill="#717174" d="M325.885,89.013c-2.788,3.084-6.82,4.863-11.091,4.863c-4.033,0-7.77-1.542-10.558-4.329
			c-3.855-3.855-3.915-7.651-3.915-17.141c0-9.549,0.06-13.286,3.915-17.141c2.788-2.788,6.524-4.33,10.558-4.33
			c7.354,0,13.167,4.923,14.413,12.337h-3.203c-1.245-5.872-5.516-9.49-11.209-9.49c-3.025,0-5.872,1.127-8.007,3.262
			c-3.025,3.025-3.262,6.346-3.262,15.361s0.237,12.336,3.262,15.362c2.135,2.135,4.982,3.262,8.007,3.262
			c3.321,0,6.583-1.423,8.778-4.093c1.839-2.313,2.55-4.744,2.55-8.362v-3.796h-11.328v-2.847h14.531v6.88
			C329.325,83.26,328.436,86.344,325.885,89.013z"/>
		<path fill="#717174" d="M340.595,51.291h3.203v39.383h22.419v2.847h-25.622V51.291z"/>
		<path fill="#717174" d="M396.407,89.547c-2.788,2.787-6.524,4.329-10.557,4.329s-7.77-1.542-10.558-4.329
			c-3.855-3.855-3.915-7.651-3.915-17.141c0-9.549,0.06-13.286,3.915-17.141c2.788-2.788,6.524-4.33,10.558-4.33
			s7.77,1.542,10.557,4.33c3.855,3.855,3.915,7.592,3.915,17.141C400.322,81.896,400.263,85.691,396.407,89.547z M393.857,57.044
			c-2.135-2.135-4.982-3.262-8.007-3.262s-5.872,1.127-8.007,3.262c-3.025,3.025-3.262,6.346-3.262,15.361
			s0.237,12.336,3.262,15.362c2.135,2.135,4.982,3.262,8.007,3.262s5.872-1.127,8.007-3.262c3.025-3.025,3.262-6.347,3.262-15.362
			S396.882,60.069,393.857,57.044z"/>
		<path fill="#717174" d="M427.726,93.521h-16.014V51.291h15.54c6.998,0,12.218,4.093,12.218,11.032c0,4.449-2.491,8.126-6.584,9.49
			c4.567,1.602,7.236,5.279,7.236,10.202C440.121,89.547,435.139,93.521,427.726,93.521z M426.895,54.138h-11.98v16.37h11.98
			c5.101,0,9.371-2.373,9.371-8.185C436.266,56.511,431.995,54.138,426.895,54.138z M427.369,73.355h-12.455v17.319h12.455
			c5.753,0,9.549-3.203,9.549-8.659C436.918,76.558,433.122,73.355,427.369,73.355z"/>
		<path fill="#717174" d="M472.685,83.26h-19.691l-3.677,10.261h-3.44l15.539-42.229h2.848l15.539,42.229h-3.44L472.685,83.26z
			 M454.002,80.413h17.674l-8.837-24.851L454.002,80.413z"/>
		<path fill="#717174" d="M487.217,51.291h3.202v39.383h22.42v2.847h-25.622V51.291z"/>
	</g>
	<g>
		<path fill="#717174" d="M531.53,93.876c-6.347,0-10.498-1.601-14.472-5.575l3.084-3.084c3.499,3.5,6.762,4.626,11.507,4.626
			c6.168,0,9.964-2.906,9.964-7.828c0-2.195-0.652-4.093-2.017-5.279c-1.364-1.186-2.432-1.542-5.516-2.017l-4.923-0.771
			c-3.321-0.534-5.932-1.601-7.771-3.203c-2.135-1.898-3.202-4.508-3.202-7.888c0-7.177,5.16-11.922,13.522-11.922
			c5.397,0,8.956,1.364,12.574,4.626l-2.906,2.906c-2.609-2.373-5.397-3.618-9.846-3.618c-5.635,0-8.896,3.144-8.896,7.829
			c0,2.076,0.593,3.737,1.897,4.864c1.306,1.127,3.5,1.957,5.694,2.313l4.626,0.712c3.974,0.593,5.932,1.423,7.711,2.965
			c2.313,1.958,3.559,4.863,3.559,8.363C546.121,89.31,540.309,93.876,531.53,93.876z"/>
		<path fill="#717174" d="M579.514,89.487c-2.847,2.847-6.583,4.389-10.794,4.389s-7.948-1.542-10.795-4.389
			c-3.974-3.974-3.974-8.126-3.974-17.082c0-8.956,0-13.107,3.974-17.082c2.847-2.847,6.584-4.389,10.795-4.389
			s7.947,1.542,10.794,4.389c3.975,3.974,3.975,8.125,3.975,17.082C583.488,81.361,583.488,85.514,579.514,89.487z M576.015,57.993
			c-1.839-1.898-4.508-3.025-7.295-3.025c-2.788,0-5.457,1.127-7.296,3.025c-2.669,2.729-2.965,5.575-2.965,14.413
			s0.296,11.684,2.965,14.413c1.839,1.898,4.508,3.024,7.296,3.024c2.787,0,5.456-1.126,7.295-3.024
			c2.669-2.729,2.966-5.575,2.966-14.413S578.684,60.722,576.015,57.993z"/>
		<path fill="#717174" d="M594.106,93.521V51.291h4.507v38.196h21.59v4.033H594.106z"/>
		<path fill="#717174" d="M640.369,93.876c-8.54,0-14.709-5.871-14.709-14.293V51.291h4.508v27.936
			c0,6.405,4.033,10.616,10.201,10.616c6.169,0,10.261-4.211,10.261-10.616V51.291h4.508v28.292
			C655.138,88.005,648.91,93.876,640.369,93.876z"/>
		<path fill="#717174" d="M679.161,55.324v38.196h-4.508V55.324h-12.218v-4.033h28.943v4.033H679.161z"/>
		<path fill="#717174" d="M699.269,93.521V51.291h4.507v42.229H699.269z"/>
		<path fill="#717174" d="M739.956,89.487c-2.847,2.847-6.583,4.389-10.794,4.389s-7.948-1.542-10.795-4.389
			c-3.974-3.974-3.974-8.126-3.974-17.082c0-8.956,0-13.107,3.974-17.082c2.847-2.847,6.584-4.389,10.795-4.389
			s7.947,1.542,10.794,4.389c3.975,3.974,3.975,8.125,3.975,17.082C743.931,81.361,743.931,85.514,739.956,89.487z M736.457,57.993
			c-1.839-1.898-4.508-3.025-7.295-3.025c-2.788,0-5.457,1.127-7.296,3.025c-2.669,2.729-2.965,5.575-2.965,14.413
			s0.296,11.684,2.965,14.413c1.839,1.898,4.508,3.024,7.296,3.024c2.787,0,5.456-1.126,7.295-3.024
			c2.669-2.729,2.966-5.575,2.966-14.413S739.126,60.722,736.457,57.993z"/>
		<path fill="#717174" d="M781.476,93.521l-22.42-33.867v33.867h-4.507V51.291h4.271l22.419,33.748V51.291h4.508v42.229H781.476z"/>
		<path fill="#717174" d="M808.819,93.876c-6.347,0-10.498-1.601-14.472-5.575l3.084-3.084c3.499,3.5,6.762,4.626,11.507,4.626
			c6.168,0,9.964-2.906,9.964-7.828c0-2.195-0.652-4.093-2.017-5.279c-1.364-1.186-2.432-1.542-5.516-2.017l-4.923-0.771
			c-3.321-0.534-5.932-1.601-7.771-3.203c-2.135-1.898-3.202-4.508-3.202-7.888c0-7.177,5.16-11.922,13.522-11.922
			c5.397,0,8.956,1.364,12.574,4.626l-2.906,2.906c-2.609-2.373-5.397-3.618-9.846-3.618c-5.635,0-8.896,3.144-8.896,7.829
			c0,2.076,0.593,3.737,1.897,4.864c1.306,1.127,3.5,1.957,5.694,2.313l4.626,0.712c3.974,0.593,5.932,1.423,7.711,2.965
			c2.313,1.958,3.559,4.863,3.559,8.363C823.41,89.31,817.598,93.876,808.819,93.876z"/>
	</g>
	<g>
		<path fill="#717174" d="M218.311,93.354V68.967l-7.991,15.866h-5.524l-8.05-15.866v24.386h-8.167V51.515h8.05l10.93,22.624
			l10.871-22.624h8.05v41.838H218.311z"/>
		<path fill="#717174" d="M257.154,93.354l-8.109-14.573l-8.05,14.573h-9.343l12.986-21.448l-12.164-20.391h9.284l7.286,13.515
			l7.345-13.515h9.226l-12.164,20.391l13.045,21.448H257.154z"/>
	</g>
	
		<linearGradient id="SVGID_1_" gradientUnits="userSpaceOnUse" x1="-65.0098" y1="383.3477" x2="-59.9778" y2="383.3477" gradientTransform="matrix(4.6143 1.7407 1.7407 -4.6143 -269.5128 1921.2062)">
		<stop  offset="0" style="stop-color:#406AA4"/>
		<stop  offset="0.0463" style="stop-color:#3E69A3"/>
		<stop  offset="0.4123" style="stop-color:#30629F"/>
		<stop  offset="0.9211" style="stop-color:#1C4067"/>
		<stop  offset="1" style="stop-color:#1C4067"/>
	</linearGradient>
	<path fill="url(#SVGID_1_)" d="M125.323,29.229c-1.423-2.441-5.119-4.575-8.361-3.424c0.505-0.259,1.041-0.429,1.584-0.57
		c-0.234,0.053-0.463,0.1-0.701,0.179c-7.547,2.655-14.945,9.325-18.589,13.987c-0.236,2.441-1.853,19.702-1.652,20.964
		c0.208,1.267,1.14,1.139,1.14,1.139l12.186,2.277c2.9-3.917,5.077-7.16,6.993-10.026C128.792,37.535,126.846,31.846,125.323,29.229
		z"/>
	
		<linearGradient id="SVGID_2_" gradientUnits="userSpaceOnUse" x1="-87.9414" y1="372.7656" x2="-82.895" y2="372.7656" gradientTransform="matrix(3.3399 1.3916 1.3916 -3.3399 -78.598 1445.4847)">
		<stop  offset="0" style="stop-color:#406AA4"/>
		<stop  offset="0.0397" style="stop-color:#3E69A3"/>
		<stop  offset="0.354" style="stop-color:#30629F"/>
		<stop  offset="0.769" style="stop-color:#1C4067"/>
		<stop  offset="1" style="stop-color:#1C4067"/>
	</linearGradient>
	<path fill="url(#SVGID_2_)" d="M161.641,69.252c-4.227,0-12.284,7.007-14.798,10.467c-0.157,3.629-0.763,12.443-0.522,13.344
		c0.246,0.896,1.102,0.771,1.102,0.771l7.841,1.199c4.16-7.761,7.983-24.995,8.033-25.229
		C162.858,69.426,162.302,69.252,161.641,69.252z"/>
	
		<linearGradient id="SVGID_3_" gradientUnits="userSpaceOnUse" x1="-90.7183" y1="353.5391" x2="-85.6863" y2="353.5391" gradientTransform="matrix(3.4327 2.2266 2.2266 -3.4327 -425.6808 1441.3132)">
		<stop  offset="0" style="stop-color:#406AA4"/>
		<stop  offset="0.1036" style="stop-color:#406AA4"/>
		<stop  offset="0.1468" style="stop-color:#3E69A3"/>
		<stop  offset="0.4881" style="stop-color:#30629F"/>
		<stop  offset="0.8994" style="stop-color:#1C4067"/>
		<stop  offset="1" style="stop-color:#1C4067"/>
	</linearGradient>
	<path fill="url(#SVGID_3_)" d="M72.626,22.718c-0.698-3.483-9.501-1.056-10.476-0.778c-0.029,0.015-0.07,0.033-0.097,0.047
		c-8.166,4.704-12.636,10.422-12.636,10.422s1.257,10.02,1.375,11.311c0.119,1.297,1.568,1.573,1.568,1.573l6.749,0.317
		C70.964,32.389,73.239,25.79,72.626,22.718z"/>
	
		<linearGradient id="SVGID_4_" gradientUnits="userSpaceOnUse" x1="-90.7158" y1="356.0449" x2="-85.6899" y2="356.0449" gradientTransform="matrix(3.4327 2.2266 2.2266 -3.4327 -425.6808 1441.3132)">
		<stop  offset="0" style="stop-color:#406AA4"/>
		<stop  offset="0.1036" style="stop-color:#406AA4"/>
		<stop  offset="0.1468" style="stop-color:#3E69A3"/>
		<stop  offset="0.4881" style="stop-color:#30629F"/>
		<stop  offset="0.8994" style="stop-color:#1C4067"/>
		<stop  offset="1" style="stop-color:#1C4067"/>
	</linearGradient>
	<path fill="url(#SVGID_4_)" d="M62.217,21.911c0.362-0.141,0.728-0.261,1.091-0.393C62.856,21.649,62.483,21.782,62.217,21.911z"/>
	
		<radialGradient id="SVGID_5_" cx="-15.5068" cy="401.0381" r="5.7916" gradientTransform="matrix(9.9035 0 0 -9.9035 211.7189 4049.7988)" gradientUnits="userSpaceOnUse">
		<stop  offset="0" style="stop-color:#748CBB"/>
		<stop  offset="0.4154" style="stop-color:#5376AC"/>
		<stop  offset="0.716" style="stop-color:#406AA4"/>
		<stop  offset="0.7479" style="stop-color:#3E69A3"/>
		<stop  offset="1" style="stop-color:#30629F"/>
	</radialGradient>
	<path fill="url(#SVGID_5_)" d="M62.054,21.97c0.015-0.006,0.063-0.018,0.097-0.03c0.019-0.009,0.044-0.02,0.066-0.029
		C62.162,21.931,62.106,21.949,62.054,21.97z"/>
	
		<radialGradient id="SVGID_6_" cx="-15.502" cy="401.7891" r="5.031" gradientTransform="matrix(9.9035 0 0 -9.9035 211.7189 4049.7988)" gradientUnits="userSpaceOnUse">
		<stop  offset="0" style="stop-color:#748CBB"/>
		<stop  offset="0.4154" style="stop-color:#5376AC"/>
		<stop  offset="0.716" style="stop-color:#406AA4"/>
		<stop  offset="0.7479" style="stop-color:#3E69A3"/>
		<stop  offset="1" style="stop-color:#30629F"/>
	</radialGradient>
	<path fill="url(#SVGID_6_)" d="M19.178,124.585c0,0,22.035-17.263,40.233-36.528C77.598,68.8,88.889,54.453,98.238,37.004
		c5.468-10.205,8.16-18.321,0.939-19.711c-0.708-0.079-1.426-0.159-2.137-0.223c-0.348-0.006-0.704-0.039-1.047-0.083
		c-1.994-0.158-4-0.231-5.989-0.231c-9.057-0.006-18.097,1.596-26.695,4.762c2.864-0.842,8.729-1.702,8.729-1.702l5.124,4.735
		l-9.545,11.115c0,0-2.349,8.01-2.517,8.171c-0.146,0.147-3.871,1.873-3.871,1.873l-2.118-0.1c-2.419,2.697-5.205,5.651-8.484,8.928
		C39.562,65.611,24.443,80.27,13.028,88.436C12.161,100.693,14.212,113.113,19.178,124.585z"/>
	
		<linearGradient id="SVGID_7_" gradientUnits="userSpaceOnUse" x1="-90.7192" y1="354.1641" x2="-85.6872" y2="354.1641" gradientTransform="matrix(3.4327 2.2266 2.2266 -3.4327 -425.6808 1441.3132)">
		<stop  offset="0" style="stop-color:#406AA4"/>
		<stop  offset="0.1036" style="stop-color:#406AA4"/>
		<stop  offset="0.1468" style="stop-color:#3E69A3"/>
		<stop  offset="0.4881" style="stop-color:#30629F"/>
		<stop  offset="0.8994" style="stop-color:#1C4067"/>
		<stop  offset="1" style="stop-color:#1C4067"/>
	</linearGradient>
	<path fill="url(#SVGID_7_)" d="M65.099,43.837c0.168-0.161,2.517-8.171,2.517-8.171l9.545-11.115l-5.124-4.735
		c0,0-5.865,0.859-8.729,1.702c-0.364,0.132-0.729,0.252-1.091,0.393c-0.022,0.009-0.047,0.021-0.066,0.029
		c0.974-0.278,9.778-2.705,10.476,0.778c0.613,3.072-1.662,9.671-13.517,22.892l2.118,0.1
		C61.228,45.709,64.952,43.984,65.099,43.837z"/>
	
		<radialGradient id="SVGID_8_" cx="-15.5044" cy="401.7861" r="5.0327" gradientTransform="matrix(9.9035 0 0 -9.9035 211.7189 4049.7988)" gradientUnits="userSpaceOnUse">
		<stop  offset="0" style="stop-color:#748CBB"/>
		<stop  offset="0.4154" style="stop-color:#5376AC"/>
		<stop  offset="0.716" style="stop-color:#406AA4"/>
		<stop  offset="0.7479" style="stop-color:#3E69A3"/>
		<stop  offset="1" style="stop-color:#30629F"/>
	</radialGradient>
	<path fill="url(#SVGID_8_)" d="M65.099,43.837c0.168-0.161,2.517-8.171,2.517-8.171l9.545-11.115l-5.124-4.735
		c0,0-5.865,0.859-8.729,1.702c-0.364,0.132-0.729,0.252-1.091,0.393c-0.022,0.009-0.047,0.021-0.066,0.029
		c0.974-0.278,9.778-2.705,10.476,0.778c0.613,3.072-1.662,9.671-13.517,22.892l2.118,0.1
		C61.228,45.709,64.952,43.984,65.099,43.837z"/>
	
		<radialGradient id="SVGID_9_" cx="50.9805" cy="364.1465" r="5.0304" gradientTransform="matrix(-11.3785 11.3785 11.3785 11.3785 -3449.0205 -4640.1768)" gradientUnits="userSpaceOnUse">
		<stop  offset="0" style="stop-color:#748CBB"/>
		<stop  offset="0.4154" style="stop-color:#5376AC"/>
		<stop  offset="0.716" style="stop-color:#406AA4"/>
		<stop  offset="0.7479" style="stop-color:#3E69A3"/>
		<stop  offset="1" style="stop-color:#30629F"/>
	</radialGradient>
	<path fill="url(#SVGID_9_)" d="M144.554,39.345c-6.25-6.247-16.205-14.415-23.741-14.417c-0.79,0-1.541,0.117-2.267,0.308
		c0.451-0.105,0.896-0.173,1.325-0.173c6.022,0,10.032,9.45,10.032,9.45l-9.975,21.648l-7.835,7.837l-1.163-0.217
		c-6.046,8.163-15.281,19.282-32.162,36.254c-21.813,21.914-38.99,35.085-49.361,41.651c1.851,2.353,3.865,4.618,6.029,6.783
		c6.849,6.843,14.65,12.127,22.992,15.859l0.28-0.211c0,0,20.034-11.161,48.482-39.604c28.439-28.447,36.214-44.074,41.317-52.445
		c6.369-10.442,7.012-19.136,3.77-23.737C149.819,44.867,147.401,42.185,144.554,39.345z"/>
	
		<linearGradient id="SVGID_10_" gradientUnits="userSpaceOnUse" x1="-65.0107" y1="383.6484" x2="-59.9779" y2="383.6484" gradientTransform="matrix(4.6143 1.7407 1.7407 -4.6143 -269.5128 1921.2062)">
		<stop  offset="0" style="stop-color:#406AA4"/>
		<stop  offset="0.0463" style="stop-color:#3E69A3"/>
		<stop  offset="0.4123" style="stop-color:#30629F"/>
		<stop  offset="0.9211" style="stop-color:#1C4067"/>
		<stop  offset="1" style="stop-color:#1C4067"/>
	</linearGradient>
	<path fill="url(#SVGID_10_)" d="M119.928,56.16l9.975-21.648c0,0-4.009-9.45-10.032-9.45c-0.428,0-0.874,0.067-1.325,0.173
		c-0.544,0.141-1.08,0.311-1.584,0.57c3.242-1.151,6.938,0.982,8.361,3.424c1.523,2.618,3.469,8.306-7.4,24.526
		c-1.916,2.866-4.093,6.109-6.993,10.026l1.163,0.217L119.928,56.16z"/>
	
		<radialGradient id="SVGID_11_" cx="50.9795" cy="364.1455" r="5.0306" gradientTransform="matrix(-11.3785 11.3785 11.3785 11.3785 -3449.0205 -4640.1768)" gradientUnits="userSpaceOnUse">
		<stop  offset="0" style="stop-color:#748CBB"/>
		<stop  offset="0.4154" style="stop-color:#5376AC"/>
		<stop  offset="0.716" style="stop-color:#406AA4"/>
		<stop  offset="0.7479" style="stop-color:#3E69A3"/>
		<stop  offset="1" style="stop-color:#30629F"/>
	</radialGradient>
	<path fill="url(#SVGID_11_)" d="M119.928,56.16l9.975-21.648c0,0-4.009-9.45-10.032-9.45c-0.428,0-0.874,0.067-1.325,0.173
		c-0.544,0.141-1.08,0.311-1.584,0.57c3.242-1.151,6.938,0.982,8.361,3.424c1.523,2.618,3.469,8.306-7.4,24.526
		c-1.916,2.866-4.093,6.109-6.993,10.026l1.163,0.217L119.928,56.16z"/>
	
		<radialGradient id="SVGID_12_" cx="60.3398" cy="352.8525" r="5.0311" gradientTransform="matrix(-7.1476 7.1476 7.1476 7.1476 -1946.3621 -2834.0381)" gradientUnits="userSpaceOnUse">
		<stop  offset="0" style="stop-color:#748CBB"/>
		<stop  offset="0.4154" style="stop-color:#5376AC"/>
		<stop  offset="0.716" style="stop-color:#406AA4"/>
		<stop  offset="0.7479" style="stop-color:#3E69A3"/>
		<stop  offset="1" style="stop-color:#30629F"/>
	</radialGradient>
	<path fill="url(#SVGID_12_)" d="M163.295,71.361c0.001,0,0.003,0,0.004,0c0.717,3,0.215,7.348,0.215,7.348l-5.688,17.023
		l-2.595-0.571c-0.003,0.006-0.007-0.085-0.009-0.079c-5.453,10.142-10.12,21.429-36.534,47.833
		c-15.242,15.251-25.783,23.187-31.029,28.134c9.766,0.294,19.582-1.275,28.883-4.667c0,0,12.641-8.395,24.284-20.045
		c11.646-11.646,22.198-26.021,24.194-34.373c3.33-13.9,2.753-28.495-1.728-42.134L163.295,71.361z"/>
	<g>
		<g>
			<g>
				<g>
					
						<radialGradient id="SVGID_13_" cx="60.3833" cy="352.8906" r="5.0825" gradientTransform="matrix(-7.1476 7.1476 7.1476 7.1476 -1946.3621 -2834.0381)" gradientUnits="userSpaceOnUse">
						<stop  offset="0" style="stop-color:#748CBB"/>
						<stop  offset="0.4154" style="stop-color:#5376AC"/>
						<stop  offset="0.716" style="stop-color:#406AA4"/>
						<stop  offset="0.7479" style="stop-color:#3E69A3"/>
						<stop  offset="1" style="stop-color:#30629F"/>
					</radialGradient>
					<path fill="url(#SVGID_13_)" d="M163.841,78.768c0,0,0.311-4.5-0.406-7.5c-0.001,0-0.139-1.453-0.141-1.453
						c-0.05,0-3.981,17.645-8.141,25.406l2.672,0.516L163.841,78.768z"/>
				</g>
			</g>
		</g>
	</g>
	<g>
		<g>
			<g>
				<g>
					<g>
						<path fill="none" d="M122.622,179.361h751v-204h-751V179.361z M278.622,38.361h6v69h-6V38.361z"/>
					</g>
				</g>
			</g>
		</g>
		<g>
			<g>
				<g>
					<g>
						<rect x="278.622" y="38.361" fill="#717174" width="6" height="69"/>
					</g>
				</g>
			</g>
		</g>
	</g>
</g>
</svg>
